<svg xmlns="http://www.w3.org/2000/svg" xmlns:xlink="http://www.w3.org/1999/xlink" viewBox="0,0,256,256" width="48px" height="48px"><g fill="#ffffff" fill-rule="nonzero" stroke="none" stroke-width="1" stroke-linecap="butt" stroke-linejoin="miter" stroke-miterlimit="10" stroke-dasharray="" stroke-dashoffset="0" font-family="none" font-weight="none" font-size="none" text-anchor="none" style="mix-blend-mode: normal"><g transform="scale(5.33333,5.33333)"><path d="M24,4c-3.99893,0 -7.73684,1.17909 -10.86523,3.20703c-0.46212,0.28588 -0.73351,0.79931 -0.70945,1.34217c0.02406,0.54286 0.3398,1.03028 0.82539,1.27416c0.48559,0.24388 1.06511,0.20611 1.51493,-0.09876c2.65961,-1.72406 5.8233,-2.72461 9.23438,-2.72461c9.40629,0 17,7.59371 17,17c0,4.04449 -1.40607,7.74208 -3.75781,10.66016c-0.33946,0.41699 -0.4298,0.98376 -0.23678,1.48562c0.19302,0.50185 0.63987,0.86202 1.17127,0.94406c0.5314,0.08204 1.06606,-0.12659 1.40145,-0.54687c2.76426,-3.42993 4.42188,-7.80146 4.42188,-12.54297c0,-11.02771 -8.97229,-20 -20,-20zM8.37305,12.69727c-0.05013,-0.00186 -0.10032,-0.00121 -0.15039,0.00195c-0.49345,0.02833 -0.94127,0.2979 -1.19727,0.7207c-1.91687,3.06828 -3.02539,6.70208 -3.02539,10.58008c0,11.02771 8.97229,20 20,20c4.32377,0 8.34322,-1.3767 11.61719,-3.7168c0.67418,-0.48217 0.82983,-1.41957 0.34766,-2.09375c-0.48217,-0.67418 -1.41957,-0.82983 -2.09375,-0.34766c-2.78403,1.9899 -6.18287,3.1582 -9.87109,3.1582c-9.40629,0 -17,-7.59371 -17,-17c0,-3.308 0.93923,-6.38252 2.56836,-8.99023c0.29166,-0.4517 0.31928,-1.02495 0.07239,-1.50259c-0.24689,-0.47764 -0.73053,-0.78663 -1.2677,-0.80991zM18.5,15.49805c-4.71665,0 -8.56333,3.89184 -8.49805,8.62109c0.06361,4.5481 3.83186,8.31529 8.37891,8.37891c4.25582,0.05924 7.83527,-3.03602 8.50586,-7.10937c0.25056,-1.52105 -0.97429,-2.88867 -2.47656,-2.88867h-4.91016c-0.54095,-0.00765 -1.04412,0.27656 -1.31683,0.74381c-0.27271,0.46725 -0.27271,1.04514 0,1.51238c0.27271,0.46725 0.77588,0.75146 1.31683,0.74381h4.21484c-0.66774,2.31478 -2.7361,4.03559 -5.29297,4c-2.88695,-0.04039 -5.38148,-2.53398 -5.42187,-5.42187c-0.04272,-3.09475 2.41865,-5.58008 5.5,-5.58008c1.15836,0 2.21821,0.35304 3.10352,0.95898c0.44179,0.3166 1.02027,0.36947 1.51213,0.13821c0.49186,-0.23126 0.82017,-0.71048 0.85818,-1.25267c0.03801,-0.54219 -0.22021,-1.06253 -0.675,-1.36015c-1.36469,-0.93406 -3.02519,-1.48437 -4.79883,-1.48437zM33.47656,19.47852c-0.82766,0.01293 -1.48843,0.69381 -1.47656,1.52148v1.5h-1.5c-0.54095,-0.00765 -1.04412,0.27656 -1.31683,0.74381c-0.27271,0.46725 -0.27271,1.04514 0,1.51238c0.27271,0.46725 0.77588,0.75146 1.31683,0.74381h1.5v1.5c-0.00765,0.54095 0.27656,1.04412 0.74381,1.31683c0.46725,0.27271 1.04514,0.27271 1.51238,0c0.46725,-0.27271 0.75146,-0.77588 0.74381,-1.31683v-1.5h1.5c0.54095,0.00765 1.04412,-0.27656 1.31683,-0.74381c0.27271,-0.46725 0.27271,-1.04514 0,-1.51238c-0.27271,-0.46725 -0.77588,-0.75146 -1.31683,-0.74381h-1.5v-1.5c0.00582,-0.40562 -0.15288,-0.7963 -0.43991,-1.08296c-0.28703,-0.28666 -0.67792,-0.44486 -1.08353,-0.43852z"></path></g></g></svg>